<svg width="236" height="100" viewBox="0 0 236 100" fill="none" xmlns="http://www.w3.org/2000/svg">
<g clip-path="url(#clip0_2_5)">
<path d="M65.2 24.46C59.68 28.66 55.72 32.68 53.32 36.52C51.04 40.24 49.9 44.38 49.9 48.94C51.46 47.98 53.26 47.5 55.3 47.5C58.06 47.5 60.28 48.46 61.96 50.38C63.76 52.18 64.66 54.52 64.66 57.4C64.66 60.64 63.52 63.28 61.24 65.32C59.08 67.36 56.14 68.38 52.42 68.38C43.9 68.38 39.64 62.74 39.64 51.46C39.64 48.46 40 45.7 40.72 43.18C41.44 40.54 42.58 38.02 44.14 35.62C45.82 33.1 48.04 30.58 50.8 28.06C53.56 25.42 56.98 22.6 61.06 19.6L65.2 24.46ZM30.64 24.46C25.12 28.66 21.16 32.68 18.76 36.52C16.48 40.24 15.34 44.38 15.34 48.94C16.9 47.98 18.7 47.5 20.74 47.5C23.5 47.5 25.72 48.46 27.4 50.38C29.2 52.18 30.1 54.52 30.1 57.4C30.1 60.64 28.96 63.28 26.68 65.32C24.52 67.36 21.58 68.38 17.86 68.38C9.34 68.38 5.08 62.74 5.08 51.46C5.08 48.46 5.44 45.7 6.16 43.18C6.88 40.54 8.02 38.02 9.58 35.62C11.26 33.1 13.48 30.58 16.24 28.06C19 25.42 22.42 22.6 26.5 19.6L30.64 24.46Z" fill="black" fill-opacity="0.15"/>
<path d="M166.52 64.52C172.04 60.32 175.94 56.36 178.22 52.64C180.62 48.8 181.82 44.6 181.82 40.04C180.26 41 178.46 41.48 176.42 41.48C173.66 41.48 171.38 40.58 169.58 38.78C167.9 36.86 167.06 34.46 167.06 31.58C167.06 28.34 168.14 25.7 170.3 23.66C172.58 21.62 175.58 20.6 179.3 20.6C187.82 20.6 192.08 26.24 192.08 37.52C192.08 40.64 191.72 43.46 191 45.98C190.28 48.5 189.08 51.02 187.4 53.54C185.84 55.94 183.68 58.46 180.92 61.1C178.16 63.62 174.74 66.38 170.66 69.38L166.52 64.52ZM201.08 64.52C206.6 60.32 210.5 56.36 212.78 52.64C215.18 48.8 216.38 44.6 216.38 40.04C214.82 41 213.02 41.48 210.98 41.48C208.22 41.48 205.94 40.58 204.14 38.78C202.46 36.86 201.62 34.46 201.62 31.58C201.62 28.34 202.7 25.7 204.86 23.66C207.14 21.62 210.14 20.6 213.86 20.6C222.38 20.6 226.64 26.24 226.64 37.52C226.64 40.64 226.28 43.46 225.56 45.98C224.84 48.5 223.64 51.02 221.96 53.54C220.4 55.94 218.24 58.46 215.48 61.1C212.72 63.62 209.3 66.38 205.22 69.38L201.08 64.52Z" fill="black" fill-opacity="0.15"/>
</g>
<defs>
<clipPath id="clip0_2_5">
<rect width="236" height="100" fill="white"/>
</clipPath>
</defs>
</svg>
